<svg width="25" height="25" viewBox="0 0 25 25" fill="none" xmlns="http://www.w3.org/2000/svg">
<g clip-path="url(#clip0)">
<path d="M24.3342 4.05716L20.9251 0.645213C20.0662 -0.214459 18.572 -0.216111 17.7097 0.646864L2.43767 16.0696C2.36997 16.1378 2.32112 16.2217 2.29449 16.3139L0.0218077 24.2752C-0.0348148 24.4735 0.0206891 24.6873 0.16664 24.8333C0.274825 24.9416 0.419657 24.9999 0.568378 24.9999C0.620526 24.9999 0.67326 24.9927 0.724289 24.9783L8.67877 22.7036C8.77087 22.677 8.85466 22.6281 8.92289 22.5603L24.3342 7.27367C24.7637 6.84386 25 6.27295 25 5.66544C25 5.05794 24.7637 4.48697 24.3342 4.05716ZM15.2337 4.77994L17.3252 6.8714L6.40572 17.7909L5.62206 16.2231C5.52549 16.0305 5.32909 15.909 5.11379 15.909H4.20389L15.2337 4.77994ZM1.39566 23.6044L2.13575 21.0137L3.98634 22.8643L1.39566 23.6044ZM7.95466 21.7306L5.2362 22.5072L2.4928 19.7638L3.26937 17.0454H4.76249L5.7418 19.004C5.79672 19.1139 5.88605 19.2032 5.99594 19.2582L7.95461 20.2375V21.7306H7.95466ZM9.09106 20.7962V19.8863C9.09106 19.671 8.96955 19.4746 8.777 19.378L7.20914 18.5943L18.1286 7.67488L20.2201 9.76634L9.09106 20.7962ZM23.5324 6.48357L21.0271 8.96649L16.0335 3.97289L18.5148 1.4693C18.9443 1.03981 19.6922 1.03981 20.1217 1.4693L23.5308 4.87837C23.7455 5.09309 23.8637 5.37828 23.8637 5.6818C23.8637 5.98531 23.7455 6.2705 23.5324 6.48357Z" fill="#222222"/>
</g>
<defs>
<clipPath id="clip0">
<rect width="25" height="25" fill="white"/>
</clipPath>
</defs>
</svg>
