<svg width="236" height="236" viewBox="0 0 236 236" fill="none" xmlns="http://www.w3.org/2000/svg">
<g clip-path="url(#clip0)">
<path d="M206.5 9.83331H29.5C13.2357 9.83331 0 23.069 0 39.3333V196.667C0 212.931 13.2357 226.167 29.5 226.167H206.5C222.764 226.167 236 212.931 236 196.667V39.3333C236 23.069 222.764 9.83331 206.5 9.83331Z" fill="#222222"/>
<path d="M206.5 206.5H29.4998C24.0817 206.5 19.6665 202.095 19.6665 196.667V59H216.333V196.667C216.333 202.095 211.918 206.5 206.5 206.5Z" fill="white"/>
<path d="M118 206.5H98.3335V59H118V206.5Z" fill="#222222"/>
<path d="M108.167 9.83331H29.5C13.2357 9.83331 0 23.069 0 39.3333V196.667C0 212.931 13.2357 226.167 29.5 226.167H108.167V206.5H29.5C24.0818 206.5 19.6667 202.095 19.6667 196.667V59H98.3333H108.167V9.83331Z" fill="#111111"/>
<path d="M108.167 59H98.3335V206.5H108.167V59Z" fill="#111111"/>
<path d="M71.2918 127.833H46.7085C42.6375 127.833 39.3335 124.529 39.3335 120.458V86.0416C39.3335 81.9706 42.6375 78.6666 46.7085 78.6666H71.2918C75.3628 78.6666 78.6668 81.9706 78.6668 86.0416V120.458C78.6668 124.529 75.3628 127.833 71.2918 127.833Z" fill="#111111"/>
<path d="M71.2918 196.667H46.7085C42.6375 196.667 39.3335 193.363 39.3335 189.292V154.875C39.3335 150.804 42.6375 147.5 46.7085 147.5H71.2918C75.3628 147.5 78.6668 150.804 78.6668 154.875V189.292C78.6668 193.363 75.3628 196.667 71.2918 196.667Z" fill="#111111"/>
<path d="M186.833 108.167H147.5C142.062 108.167 137.667 103.761 137.667 98.3333C137.667 92.9053 142.062 88.5 147.5 88.5H186.833C192.271 88.5 196.667 92.9053 196.667 98.3333C196.667 103.761 192.271 108.167 186.833 108.167Z" fill="#6F15C9"/>
<path d="M186.833 147.5H147.5C142.062 147.5 137.667 143.095 137.667 137.667C137.667 132.239 142.062 127.833 147.5 127.833H186.833C192.271 127.833 196.667 132.239 196.667 137.667C196.667 143.095 192.271 147.5 186.833 147.5Z" fill="#6F15C9"/>
<path d="M186.833 186.833H147.5C142.062 186.833 137.667 182.428 137.667 177C137.667 171.572 142.062 167.167 147.5 167.167H186.833C192.271 167.167 196.667 171.572 196.667 177C196.667 182.428 192.271 186.833 186.833 186.833Z" fill="#6F15C9"/>
</g>
<defs>
<clipPath id="clip0">
<rect width="236" height="236" fill="white"/>
</clipPath>
</defs>
</svg>
