<svg width="83" height="82" viewBox="0 0 83 82" fill="none" xmlns="http://www.w3.org/2000/svg">
<path d="M55.53 48.8054C55.3542 48.2556 55.5486 47.6565 56.0142 47.3153L66.4218 39.6797C68.0788 38.464 68.7393 36.4157 68.1041 34.4614C67.4691 32.5068 65.7309 31.2378 63.6759 31.2283L50.7678 31.1685C50.1905 31.1658 49.681 30.7959 49.5002 30.2477L45.4545 17.9895C44.8103 16.038 43.0666 14.7773 41.0116 14.777C38.9566 14.777 37.2125 16.038 36.5684 17.9893L34.7448 23.5123C34.4559 24.3873 34.9309 25.3312 35.8061 25.6199C36.6813 25.9094 37.6247 25.4338 37.9139 24.5586L39.7375 19.0355C40.0195 18.1809 40.7838 18.1144 41.0116 18.1144C41.2391 18.1144 42.0033 18.1809 42.2853 19.0355L46.3311 31.294C46.9624 33.206 48.739 34.4967 50.7523 34.5062L63.6604 34.566C64.5603 34.5701 64.8599 35.2766 64.9299 35.4929C65.0003 35.7093 65.1733 36.4566 64.4477 36.9889L54.0398 44.6245C52.4165 45.8157 51.7379 47.9043 52.3511 49.8222L56.2845 62.121C56.5587 62.9784 55.9794 63.4815 55.7953 63.615C55.6112 63.7488 54.954 64.1445 54.2234 63.6186L43.7449 56.0778C42.1101 54.9017 39.9136 54.9017 38.2788 56.0778L27.7984 63.62C27.0678 64.1456 26.4103 63.7502 26.2265 63.6167C26.0424 63.4829 25.4631 62.9801 25.737 62.1229L29.6693 49.8222C30.2825 47.9046 29.6036 45.816 27.9805 44.6248L17.5732 36.9892C16.8476 36.4569 17.0206 35.7093 17.091 35.4932C17.1614 35.2768 17.4609 34.5704 18.3606 34.5663L31.2695 34.5065C32.1909 34.502 32.9346 33.7517 32.9304 32.83C32.926 31.9111 32.1798 31.1691 31.2617 31.1691C31.2592 31.1691 31.2565 31.1691 31.254 31.1691L18.345 31.2289C16.29 31.2383 14.5518 32.5074 13.9169 34.462C13.2819 36.4165 13.9422 38.4649 15.5989 39.6805L26.0062 47.3161C26.4715 47.6576 26.6662 48.2564 26.4904 48.8063L22.5584 61.107C21.9327 63.0643 22.6027 65.1096 24.2652 66.3172C25.0996 66.9232 26.0568 67.2263 27.0147 67.2263C27.9655 67.2263 28.917 66.9273 29.7482 66.3294L40.2284 58.7872C40.697 58.4499 41.327 58.4499 41.7956 58.7872L52.2741 66.328C53.9422 67.5283 56.0943 67.5239 57.7571 66.3158C59.42 65.1079 60.0897 63.0627 59.4636 61.105L55.53 48.8054Z" fill="#222222"/>
</svg>
