<svg width="25" height="25" viewBox="0 0 25 25" fill="none" xmlns="http://www.w3.org/2000/svg">
<g clip-path="url(#clip0)">
<path d="M15.9484 9.05754C15.625 9.05754 15.3629 9.31963 15.3629 9.64302V20.7086C15.3629 21.0318 15.625 21.2941 15.9484 21.2941C16.2718 21.2941 16.5339 21.0318 16.5339 20.7086V9.64302C16.5339 9.31963 16.2718 9.05754 15.9484 9.05754Z" fill="#222222"/>
<path d="M9.03976 9.05754C8.71638 9.05754 8.45428 9.31963 8.45428 9.64302V20.7086C8.45428 21.0318 8.71638 21.2941 9.03976 21.2941C9.36315 21.2941 9.62524 21.0318 9.62524 20.7086V9.64302C9.62524 9.31963 9.36315 9.05754 9.03976 9.05754Z" fill="#222222"/>
<path d="M4.00459 7.44268V21.8676C4.00459 22.7202 4.31723 23.5209 4.86337 24.0954C5.40699 24.6715 6.16354 24.9986 6.95531 24.9999H18.0327C18.8247 24.9986 19.5813 24.6715 20.1247 24.0954C20.6708 23.5209 20.9835 22.7202 20.9835 21.8676V7.44268C22.0691 7.15451 22.7726 6.10569 22.6274 4.99168C22.4819 3.87789 21.533 3.04473 20.4096 3.0445H17.412V2.31265C17.4155 1.69722 17.1721 1.10625 16.7365 0.671486C16.3008 0.236952 15.7089 -0.00501556 15.0935 1.58919e-05H9.89459C9.27915 -0.00501556 8.68727 0.236952 8.25159 0.671486C7.81592 1.10625 7.57258 1.69722 7.57601 2.31265V3.0445H4.5784C3.45502 3.04473 2.50613 3.87789 2.36068 4.99168C2.21545 6.10569 2.91894 7.15451 4.00459 7.44268ZM18.0327 23.829H6.95531C5.95428 23.829 5.17555 22.9691 5.17555 21.8676V7.49414H19.8125V21.8676C19.8125 22.9691 19.0338 23.829 18.0327 23.829ZM8.74696 2.31265C8.74308 2.00779 8.86292 1.71437 9.07927 1.49916C9.29539 1.28395 9.5895 1.16571 9.89459 1.17097H15.0935C15.3985 1.16571 15.6927 1.28395 15.9088 1.49916C16.1251 1.71414 16.245 2.00779 16.2411 2.31265V3.0445H8.74696V2.31265ZM4.5784 4.21546H20.4096C20.9917 4.21546 21.4635 4.68727 21.4635 5.26932C21.4635 5.85137 20.9917 6.32318 20.4096 6.32318H4.5784C3.99636 6.32318 3.52454 5.85137 3.52454 5.26932C3.52454 4.68727 3.99636 4.21546 4.5784 4.21546Z" fill="#222222"/>
<path d="M12.494 9.05754C12.1707 9.05754 11.9086 9.31963 11.9086 9.64302V20.7086C11.9086 21.0318 12.1707 21.2941 12.494 21.2941C12.8174 21.2941 13.0795 21.0318 13.0795 20.7086V9.64302C13.0795 9.31963 12.8174 9.05754 12.494 9.05754Z" fill="#222222"/>
</g>
<defs>
<clipPath id="clip0">
<rect width="25" height="25" fill="white"/>
</clipPath>
</defs>
</svg>
