<svg width="277" height="277" viewBox="0 0 277 277" fill="none" xmlns="http://www.w3.org/2000/svg">
<g opacity="0.5">
<path opacity="0.5" d="M138.5 277C214.991 277 277 214.991 277 138.5C277 62.0086 214.991 0 138.5 0C62.0086 0 0 62.0086 0 138.5C0 214.991 62.0086 277 138.5 277Z" fill="url(#paint0_linear)"/>
</g>
<path d="M138.77 273.194C213.648 273.194 274.349 212.493 274.349 137.615C274.349 62.7367 213.648 2.03583 138.77 2.03583C63.8915 2.03583 3.19067 62.7367 3.19067 137.615C3.19067 212.493 63.8915 273.194 138.77 273.194Z" fill="#DCDCDC"/>
<path d="M138.897 273.73C165.389 273.773 191.308 266.016 213.421 251.427C208.425 224.124 189.412 222.568 189.412 222.568H84.5644C84.5644 222.568 66.6229 224.041 61.0194 249.157C83.818 265.194 111.023 273.778 138.897 273.73Z" fill="#6F15C9"/>
<path d="M137.456 200.198C173.598 200.198 202.897 170.899 202.897 134.758C202.897 98.6161 173.598 69.3175 137.456 69.3175C101.315 69.3175 72.016 98.6161 72.016 134.758C72.016 170.899 101.315 200.198 137.456 200.198Z" fill="#333333"/>
<path opacity="0.1" d="M116.336 189.265H158.267V222.81C158.267 228.369 156.059 233.701 152.129 237.632C148.199 241.564 142.868 243.774 137.309 243.776C131.749 243.776 126.416 241.567 122.485 237.635C118.553 233.703 116.344 228.371 116.344 222.81V189.265H116.336Z" fill="black"/>
<path d="M117.665 187.709H156.953C157.306 187.709 157.644 187.849 157.894 188.099C158.143 188.348 158.283 188.686 158.283 189.039V221.255C158.283 224.009 157.741 226.736 156.687 229.281C155.633 231.826 154.089 234.138 152.141 236.085C150.193 238.032 147.881 239.577 145.336 240.63C142.791 241.684 140.064 242.225 137.309 242.224C131.749 242.224 126.416 240.015 122.485 236.084C118.553 232.152 116.344 226.819 116.344 221.259V189.039C116.344 188.687 116.483 188.35 116.731 188.101C116.978 187.852 117.314 187.711 117.665 187.709Z" fill="#FDB797"/>
<path opacity="0.1" d="M116.411 205.099C129.925 210.148 144.801 210.189 158.342 205.214V200.055H116.411V205.099Z" fill="black"/>
<path d="M137.456 207.905C170.65 207.905 197.559 180.996 197.559 147.802C197.559 114.608 170.65 87.6995 137.456 87.6995C104.263 87.6995 77.3536 114.608 77.3536 147.802C77.3536 180.996 104.263 207.905 137.456 207.905Z" fill="#FDB797"/>
<path opacity="0.1" d="M94.6443 93.1323C94.6443 93.1323 119.975 144.548 191.428 114.689L174.792 88.6043L145.302 78.0204L94.6443 93.1323Z" fill="black"/>
<path d="M94.6443 92.3783C94.6443 92.3783 119.975 143.794 191.428 113.927L174.792 87.8423L145.302 77.2584L94.6443 92.3783Z" fill="#333333"/>
<path d="M94.4221 88.894C96.13 83.6069 99.0819 78.8068 103.03 74.8972C114.852 63.21 134.234 60.7456 144.175 47.4194C146.556 51.118 144.715 56.8048 140.603 58.3922C150.128 58.3287 161.164 57.4954 166.549 49.6616C167.88 52.7599 168.304 56.1723 167.773 59.5021C167.241 62.832 165.775 65.9425 163.545 68.4722C171.986 68.869 181.006 74.5836 181.538 83.0167C181.903 88.636 178.363 93.9538 173.764 97.1762C169.164 100.399 163.561 101.879 158.065 103.089C142.016 106.633 83.9493 121.463 94.4221 88.894Z" fill="#333333"/>
<path d="M77.3298 158.231C80.418 158.231 82.9214 153.537 82.9214 147.747C82.9214 141.956 80.418 137.262 77.3298 137.262C74.2417 137.262 71.7382 141.956 71.7382 147.747C71.7382 153.537 74.2417 158.231 77.3298 158.231Z" fill="#FDB797"/>
<path d="M197.551 158.231C200.639 158.231 203.143 153.537 203.143 147.747C203.143 141.956 200.639 137.262 197.551 137.262C194.463 137.262 191.959 141.956 191.959 147.747C191.959 153.537 194.463 158.231 197.551 158.231Z" fill="#FDB797"/>
<defs>
<linearGradient id="paint0_linear" x1="138.5" y1="277" x2="138.5" y2="0" gradientUnits="userSpaceOnUse">
<stop stop-color="#808080" stop-opacity="0.25"/>
<stop offset="0.54" stop-color="#808080" stop-opacity="0.12"/>
<stop offset="1" stop-color="#808080" stop-opacity="0.1"/>
</linearGradient>
</defs>
</svg>
